<?xml version="1.0" encoding="utf-8"?>
<!-- Generator: Adobe Illustrator 15.1.0, SVG Export Plug-In . SVG Version: 6.00 Build 0)  -->
<!DOCTYPE svg PUBLIC "-//W3C//DTD SVG 1.1//EN" "http://www.w3.org/Graphics/SVG/1.1/DTD/svg11.dtd">
<svg version="1.1" id="Layer_1" xmlns="http://www.w3.org/2000/svg" xmlns:xlink="http://www.w3.org/1999/xlink" x="0px" y="0px"
	 width="835.574px" height="323px" viewBox="0 0 835.574 323" enable-background="new 0 0 835.574 323" xml:space="preserve">
<g>
	<defs>
		<rect id="SVGID_1_" x="-75" y="-68.706" width="1000" height="468.706"/>
	</defs>
	<clipPath id="SVGID_2_">
		<use xlink:href="#SVGID_1_"  overflow="visible"/>
	</clipPath>
	<path clip-path="url(#SVGID_2_)" fill="#444444" d="M333.805,267.015c-41.59,2.971-50.874-17.454-59.044-41.222
		c-4.438-12.905-9.326-28.33-12.767-39.636l-34.205,50.012c8.671,29.495,27.508,55.355,65.168,55.355
		c25.981,0,42.434-14.26,51.283-25.284C341.062,266.485,337.613,266.743,333.805,267.015"/>
	<path clip-path="url(#SVGID_2_)" fill="#444444" d="M197.302,132.883c2.047,7.334,3.703,14.73,4.957,20.97l33.308-51.331
		c-2.5-5.785-5.422-11.551-8.649-16.72c-5.245-8.125-11.609-15.307-19.213-21.043c-0.568-0.428-1.176-0.804-1.757-1.215
		c-10.39,7.506-19.594,16.297-27.329,26.112c0.486,0.605,0.966,1.219,1.432,1.853C188.307,102.776,193.284,118.567,197.302,132.883"
		/>
	<path clip-path="url(#SVGID_2_)" fill="#FF722C" d="M294.388,2.702c-47.036,0-89.658,17.427-120.734,45.664
		c-1.103,1.001-2.152,2.054-3.225,3.082l-1.845,1.843c-8.062,7.974-15.246,16.711-21.354,25.969l-1.683,2.552l-0.021,0.006
		c-14.815,23.488-23.325,50.786-23.325,79.93c0,24.377,5.959,47.465,16.575,68.116c2.488-2.119,4.982-4.335,7.428-6.649
		c2.457-2.321,4.954-4.801,7.42-7.364c0.636-0.661,1.302-1.37,1.968-2.081c-7.254-16.047-11.268-33.612-11.268-52.021
		c0-30.113,10.734-57.968,28.858-80.598c7.393-9.23,15.997-17.6,25.632-24.881c25.975-19.631,59.29-31.444,95.574-31.444
		c82.744,0,150.062,61.424,150.062,136.923c0,75.499-67.317,136.922-150.062,136.922c-38.997,0-74.535-13.673-101.244-36.007
		c-0.422,0.325-0.849,0.656-1.268,0.976c-3.288,2.487-6.34,4.708-9.076,6.594c-3.135,2.164-5.985,3.99-8.516,5.464
		c31.02,27.902,73.384,45.097,120.104,45.097c95.095,0,172.186-71.207,172.186-159.045C466.573,73.909,389.483,2.702,294.388,2.702"
		/>
	<path clip-path="url(#SVGID_2_)" fill="#444444" d="M294.345,37.155c-2.742,0-5.46,0.092-8.165,0.236
		c-3.892,5.723-8.627,13.054-14.483,22.405h-0.047c-9.104,14.273-18.11,28.681-27.039,42.911c-1.839,2.926-3.676,5.857-5.506,8.764
		l-34.769,53.582c-1.366,2.006-3.204,4.823-5.467,8.232c-6.969,10.505-18.025,26.714-32.203,42.746
		c-0.572,0.648-1.165,1.292-1.748,1.938c-1.851,2.054-3.737,4.099-5.688,6.125c-2.485,2.581-5.045,5.131-7.682,7.624
		c-2.905,2.748-5.902,5.423-8.98,7.998c-2.011,1.681-4.068,3.301-6.149,4.884c-0.954,0.723-1.9,1.46-2.866,2.16
		c-9.629,6.977-21.976,14.385-34.939,16.396c-32.235,5.007-46.448-20.019-44.205-53.473c1.751-26.12,12.114-50.32,24.242-71.301
		c12.432-21.503,26.946-40.56,43.494-52.046c4.432-3.081,10.532-6.6,18.498-8.584c6.453-9.784,13.968-18.902,22.386-27.227
		c-1.946-0.002-3.92,0.034-5.949,0.159c-44.014,2.695-77.26,23.787-104.096,50.621C28.378,125.915,4.377,161.85,1.647,202.557
		c-3.654,54.49,36.152,85.7,81.28,89.122c32.145,2.439,56.999-5.031,78.053-15.141c2.304-1.105,4.577-2.234,6.795-3.396
		c0.157-0.083,0.336-0.189,0.496-0.273c2.865-1.54,6.281-3.69,10.032-6.277c2.79-1.926,5.757-4.093,8.795-6.394
		c2.061-1.561,4.152-3.191,6.249-4.858c0.563-0.449,1.124-0.885,1.686-1.336c8.997-7.238,17.869-15.069,24.148-21.38
		c2.454-2.467,4.526-4.705,6.033-6.577l33.897-49.561c1.692-2.6,3.556-5.476,5.562-8.583
		c18.667-28.932,50.002-78.498,78.068-122.847C327.657,39.954,311.353,37.155,294.345,37.155"/>
	<path clip-path="url(#SVGID_2_)" fill="#444444" d="M327.693,154.734v47.05h-6.05v-8.274h-0.167
		c-1.289,1.792-2.479,3.179-3.572,4.158c-1.792,1.539-3.948,2.802-6.469,3.78c-2.52,0.98-5.433,1.472-8.738,1.472
		c-4.845,0-9.158-1.093-12.939-3.276c-3.78-2.185-6.708-5.236-8.779-9.159c-2.074-3.92-3.109-8.009-3.109-12.265
		c0-4.314,1.092-8.426,3.277-12.332c2.184-3.908,5.244-6.947,9.179-9.116c3.934-2.169,8.171-3.255,12.708-3.255
		c2.996,0,5.74,0.454,8.233,1.364c2.492,0.911,4.649,2.164,6.47,3.76c1.26,1.064,2.506,2.508,3.739,4.327h0.167v-8.234H327.693z
		 M283.877,178.387c0,3.389,0.798,6.572,2.395,9.556c1.596,2.984,3.899,5.322,6.91,7.016c3.01,1.695,6.238,2.541,9.683,2.541
		c3.445,0,6.659-0.833,9.641-2.499c2.983-1.665,5.315-4.004,6.995-7.016c1.68-3.01,2.521-6.224,2.521-9.641
		c0-3.445-0.848-6.701-2.542-9.768c-1.694-3.066-4.012-5.44-6.953-7.12c-2.941-1.68-6.106-2.521-9.493-2.521
		c-1.821,0-3.557,0.231-5.21,0.693c-1.653,0.463-3.242,1.129-4.768,1.997c-1.527,0.867-2.997,2.064-4.41,3.591
		c-1.415,1.526-2.563,3.444-3.445,5.756C284.318,173.28,283.877,175.753,283.877,178.387"/>
	<rect x="338.615" y="138.1" clip-path="url(#SVGID_2_)" fill="#444444" width="6.007" height="63.684"/>
	<path clip-path="url(#SVGID_2_)" fill="#444444" d="M359.199,201.784v-41.63h-7.31v-5.42h7.31c0.112-3.361,0.462-6.021,1.05-7.981
		c0.589-1.96,1.603-3.677,3.046-5.146c1.443-1.47,3.283-2.584,5.524-3.34c2.24-0.757,5.055-1.176,8.444-1.259v5.586
		c-3.249,0.055-5.741,0.561-7.478,1.513c-1.736,0.951-2.982,2.351-3.738,4.201c-0.56,1.316-0.84,3.457-0.84,6.426h12.056v5.42
		h-12.056v41.63H359.199z"/>
	<path clip-path="url(#SVGID_2_)" fill="#444444" d="M426.75,154.734v47.05h-6.049v-8.274h-0.167
		c-1.289,1.792-2.479,3.179-3.572,4.158c-1.792,1.539-3.949,2.802-6.469,3.78c-2.52,0.98-5.433,1.472-8.738,1.472
		c-4.845,0-9.158-1.093-12.939-3.276c-3.78-2.185-6.708-5.236-8.78-9.159c-2.073-3.92-3.108-8.009-3.108-12.265
		c0-4.314,1.092-8.426,3.277-12.332c2.184-3.908,5.244-6.947,9.178-9.116c3.935-2.169,8.172-3.255,12.708-3.255
		c2.996,0,5.741,0.454,8.234,1.364c2.492,0.911,4.649,2.164,6.47,3.76c1.26,1.064,2.506,2.508,3.739,4.327h0.167v-8.234H426.75z
		 M382.935,178.387c0,3.389,0.798,6.572,2.395,9.556c1.596,2.984,3.899,5.322,6.91,7.016c3.01,1.695,6.238,2.541,9.683,2.541
		c3.445,0,6.658-0.833,9.641-2.499c2.983-1.665,5.314-4.004,6.995-7.016c1.68-3.01,2.521-6.224,2.521-9.641
		c0-3.445-0.848-6.701-2.542-9.768c-1.695-3.066-4.012-5.44-6.953-7.12c-2.941-1.68-6.106-2.521-9.494-2.521
		c-1.821,0-3.556,0.231-5.209,0.693c-1.653,0.463-3.242,1.129-4.768,1.997c-1.527,0.867-2.997,2.064-4.411,3.591
		c-1.414,1.526-2.563,3.444-3.445,5.756C383.375,173.28,382.935,175.753,382.935,178.387"/>
	<path clip-path="url(#SVGID_2_)" fill="#444444" d="M518.484,187.921h6.638c-1.597,2.999-3.221,5.395-4.873,7.186
		c-2.297,2.463-4.964,4.383-8.003,5.755s-6.463,2.059-10.271,2.059c-4.763,0-9.082-1.079-12.961-3.235
		c-3.879-2.155-6.945-5.16-9.199-9.012c-2.255-3.851-3.382-7.975-3.382-12.371c0-4.283,1.106-8.381,3.318-12.288
		c2.213-3.906,5.32-6.964,9.326-9.179c4.005-2.212,8.219-3.317,12.645-3.317c3.641,0,7.12,0.72,10.439,2.162
		c3.318,1.442,6.126,3.422,8.423,5.945c1.707,1.876,3.221,4.312,4.537,7.31h-6.638c-1.093-1.905-2.17-3.403-3.234-4.495
		c-1.653-1.652-3.606-2.984-5.86-3.993c-2.255-1.006-4.726-1.512-7.414-1.512c-3.39,0-6.646,0.841-9.768,2.521
		c-3.124,1.68-5.531,3.999-7.226,6.953c-1.694,2.955-2.542,6.181-2.542,9.682c0,3.476,0.854,6.729,2.563,9.769
		s4.075,5.405,7.1,7.099c3.024,1.695,6.329,2.541,9.914,2.541s6.806-0.824,9.662-2.477
		C514.536,193.368,516.804,191.003,518.484,187.921"/>
	<polygon clip-path="url(#SVGID_2_)" fill="#444444" points="529.406,201.784 529.406,196.534 555.495,160.154 530.289,160.154 
		530.289,154.734 562.72,154.734 562.72,160.154 536.885,196.367 564.274,196.367 564.274,201.784 	"/>
	<path clip-path="url(#SVGID_2_)" fill="#444444" d="M618.551,154.734v47.05h-6.05v-8.274h-0.167
		c-1.289,1.792-2.479,3.179-3.571,4.158c-1.793,1.539-3.949,2.802-6.47,3.78c-2.521,0.98-5.434,1.472-8.738,1.472
		c-4.845,0-9.157-1.093-12.938-3.276c-3.78-2.185-6.708-5.236-8.78-9.159c-2.072-3.92-3.107-8.009-3.107-12.265
		c0-4.314,1.092-8.426,3.277-12.332c2.183-3.908,5.242-6.947,9.178-9.116c3.935-2.169,8.171-3.255,12.708-3.255
		c2.996,0,5.74,0.454,8.233,1.364c2.492,0.911,4.649,2.164,6.47,3.76c1.26,1.064,2.506,2.508,3.739,4.327h0.167v-8.234H618.551z
		 M574.735,178.387c0,3.389,0.798,6.572,2.396,9.556c1.595,2.984,3.898,5.322,6.909,7.016c3.011,1.695,6.238,2.541,9.684,2.541
		c3.444,0,6.658-0.833,9.641-2.499c2.982-1.665,5.314-4.004,6.994-7.016c1.681-3.01,2.522-6.224,2.522-9.641
		c0-3.445-0.849-6.701-2.543-9.768c-1.694-3.066-4.012-5.44-6.953-7.12c-2.94-1.68-6.105-2.521-9.493-2.521
		c-1.821,0-3.558,0.231-5.21,0.693c-1.652,0.463-3.242,1.129-4.768,1.997c-1.527,0.867-2.997,2.064-4.411,3.591
		c-1.413,1.526-2.563,3.444-3.444,5.756C575.177,173.28,574.735,175.753,574.735,178.387"/>
	<path clip-path="url(#SVGID_2_)" fill="#444444" d="M629.474,201.784v-47.05h6.007v6.807h0.168c0.812-1.792,1.757-3.23,2.836-4.308
		c1.077-1.076,2.4-1.917,3.969-2.52c1.569-0.603,3.726-1.001,6.471-1.196v6.384c-3.081,0.31-5.638,1.128-7.667,2.458
		c-2.031,1.33-3.501,3.122-4.411,5.377c-0.911,2.255-1.365,4.432-1.365,6.532v27.516H629.474z"/>
	<polygon clip-path="url(#SVGID_2_)" fill="#444444" points="660.854,201.784 660.854,160.154 650.982,160.154 650.982,154.734 
		660.854,154.734 660.854,138.1 666.904,138.1 666.904,154.734 678.163,154.734 678.163,160.154 666.904,160.154 666.904,201.784 	
		"/>
	<path clip-path="url(#SVGID_2_)" fill="#444444" d="M727.104,180.443h-42.85c0.193,2.55,0.763,4.805,1.7,6.764
		c0.938,1.96,2.229,3.697,3.866,5.21c1.639,1.513,3.535,2.737,5.692,3.675c2.155,0.938,4.494,1.407,7.015,1.407
		c3.781,0,7.19-1,10.229-3.002c3.039-2.003,5.245-4.713,6.617-8.131h6.385c-1.063,2.887-2.351,5.267-3.864,7.143
		c-2.408,2.997-5.293,5.313-8.654,6.952c-3.359,1.638-7.001,2.459-10.923,2.459c-6.72,0-12.44-2.353-17.159-7.059
		c-4.721-4.704-7.079-10.446-7.079-17.225c0-4.509,1.092-8.716,3.276-12.623c2.185-3.906,5.236-6.965,9.158-9.179
		c3.921-2.212,7.968-3.317,12.141-3.317c4.145,0,8.165,1.105,12.058,3.317c3.892,2.214,6.937,5.293,9.136,9.243
		c2.199,3.948,3.299,8.064,3.299,12.35C727.146,178.905,727.131,179.576,727.104,180.443 M721.012,175.026
		c-0.476-2.409-1.141-4.446-1.995-6.114c-0.854-1.665-2.052-3.246-3.591-4.747c-1.541-1.498-3.424-2.744-5.65-3.739
		c-2.227-0.992-4.615-1.491-7.163-1.491c-2.492,0-4.809,0.462-6.954,1.387c-2.142,0.925-4.011,2.107-5.605,3.55
		c-1.597,1.442-2.852,3.073-3.761,4.894c-0.911,1.821-1.591,3.906-2.037,6.261H721.012z"/>
	<path clip-path="url(#SVGID_2_)" fill="#444444" d="M736.304,201.784v-47.05h6.009v6.807h0.168c0.813-1.792,1.757-3.23,2.836-4.308
		c1.077-1.076,2.4-1.917,3.97-2.52c1.567-0.603,3.724-1.001,6.469-1.196v6.384c-3.082,0.31-5.638,1.128-7.667,2.458
		s-3.5,3.122-4.41,5.377c-0.911,2.255-1.365,4.432-1.365,6.532v27.516H736.304z"/>
	<rect x="750.251" y="190.946" clip-path="url(#SVGID_2_)" fill="#444444" width="6.386" height="10.838"/>
	<path clip-path="url(#SVGID_2_)" fill="#444444" d="M770.794,218.294v-63.56h6.009v8.234h0.168c1.4-1.849,2.688-3.263,3.864-4.243
		c1.85-1.568,4.005-2.829,6.47-3.78c2.464-0.952,5.194-1.428,8.19-1.428c3.671,0,7.031,0.663,10.083,1.994
		c3.053,1.332,5.608,3.025,7.667,5.083c2.059,2.06,3.69,4.334,4.895,6.828c1.651,3.417,2.478,7.015,2.478,10.798
		c0,4.339-1.092,8.448-3.276,12.328s-5.251,6.911-9.2,9.096c-3.948,2.184-8.122,3.276-12.518,3.276c-3.054,0-5.84-0.491-8.36-1.472
		c-2.521-0.979-4.706-2.241-6.554-3.78c-1.232-1.036-2.479-2.422-3.738-4.158h-0.168v24.784H770.794z M814.568,178.387
		c0-2.828-0.533-5.588-1.597-8.275c-0.784-1.85-1.946-3.6-3.485-5.253c-1.541-1.652-3.517-3.052-5.924-4.201
		c-2.41-1.146-5.112-1.722-8.108-1.722c-3.39,0-6.554,0.841-9.493,2.521c-2.941,1.68-5.258,4.054-6.953,7.12
		c-1.695,3.066-2.542,6.322-2.542,9.768c0,3.39,0.84,6.589,2.521,9.599c1.68,3.01,4.004,5.356,6.974,7.038
		c2.968,1.679,6.161,2.519,9.578,2.519c3.444,0,6.686-0.846,9.724-2.541c3.039-1.693,5.349-4.031,6.932-7.016
		C813.777,184.959,814.568,181.775,814.568,178.387"/>
	<rect x="829.565" y="138.1" clip-path="url(#SVGID_2_)" fill="#444444" width="6.009" height="63.684"/>
</g>
</svg>
